<?xml version="1.0" encoding="UTF-8"?>
<svg width="88px" height="100px" viewBox="0 0 88 100" version="1.1" xmlns="http://www.w3.org/2000/svg" xmlns:xlink="http://www.w3.org/1999/xlink">
    <!-- Generator: Sketch 53 (72520) - https://sketchapp.com -->
    <title>Group 2</title>
    <desc>Created with Sketch.</desc>
    <g id="Page-1" stroke="none" stroke-width="1" fill="none" fill-rule="evenodd">
        <g id="Artboard" transform="translate(-242.000000, -174.000000)">
            <g id="Group-2" transform="translate(236.000000, 174.000000)">
                <path d="M52.5,1.44337567 L90.8012702,23.5566243 C92.3482756,24.4497883 93.3012702,26.1004234 93.3012702,27.8867513 L93.3012702,72.1132487 C93.3012702,73.8995766 92.3482756,75.5502117 90.8012702,76.4433757 L52.5,98.5566243 C50.9529946,99.4497883 49.0470054,99.4497883 47.5,98.5566243 L9.19872981,76.4433757 C7.65172443,75.5502117 6.69872981,73.8995766 6.69872981,72.1132487 L6.69872981,27.8867513 C6.69872981,26.1004234 7.65172443,24.4497883 9.19872981,23.5566243 L47.5,1.44337567 C49.0470054,0.550211698 50.9529946,0.550211698 52.5,1.44337567 Z" id="Polygon" fill="#EB5B5C"></path>
                <g id="settings-2" transform="translate(25.000000, 25.000000)" fill="#FFFFFF" fill-rule="nonzero">
                    <path d="M32.9619485,36.6393658 C32.4223796,36.3151033 31.8685772,35.9891368 31.3147748,35.6695854 C31.444981,34.5599761 31.4452817,33.4375366 31.3153762,32.3301325 C31.8712836,32.0093782 32.4247852,31.6836122 32.961748,31.3607529 C33.8658742,30.8174754 34.2427605,29.6711798 33.8382091,28.6941824 C33.8382091,28.6941824 33.8382091,28.6941824 33.8381089,28.6940821 L32.6582342,25.8455838 C32.2535826,24.868887 31.1770509,24.3245069 30.1530428,24.5796068 C29.5445117,24.7310629 28.9227495,24.8921417 28.3031925,25.0583325 C27.6114658,24.1830743 26.8176991,23.3895082 25.9413382,22.6973806 C26.107529,22.0777235 26.2687081,21.4556607 26.4202645,20.8469292 C26.6753644,19.8234224 26.1310844,18.7464899 25.1543875,18.3418384 L22.3058888,17.1619638 C21.3291919,16.757212 20.1825955,17.1337976 19.6391174,18.0381242 C19.3154562,18.5767909 18.9893894,19.1305932 18.669437,19.6852976 C17.5601282,19.5550914 16.4378891,19.5547907 15.3299836,19.6845959 C15.0090289,19.1281875 14.6831625,18.5745857 14.3607042,18.0381242 C13.8170256,17.1339981 12.6707299,16.7573123 11.6939328,17.1619638 L8.84543404,18.3418384 C7.86893763,18.7463897 7.32445718,19.8234224 7.57955709,20.8469292 C7.73141421,21.4568635 7.89239279,22.0787258 8.05828291,22.6967792 C7.18312481,23.3883054 6.38945836,24.1822724 5.69743093,25.0586332 C5.07637039,24.8919412 4.4543075,24.7309627 3.84677878,24.5796068 C2.82297111,24.3243064 1.74623897,24.8690875 1.34158736,25.845684 L0.161913141,28.6940821 C-0.242538001,29.6708791 0.134248081,30.8172749 1.03817383,31.3605525 C1.57694084,31.6843138 2.13074321,32.0102803 2.68534746,32.330333 C2.55524149,33.4395413 2.55494079,34.5617803 2.68474605,35.6697858 C2.12964061,35.9900389 1.57613895,36.3159052 1.03797336,36.6392656 C0.13404761,37.1826434 -0.242738472,38.328939 0.161812905,39.3058362 L1.34178783,42.1543345 C1.74633921,43.1309311 2.82277064,43.6755117 3.84697925,43.4203115 C4.45480867,43.2689556 5.0766711,43.1079771 5.69662904,42.9415858 C6.38835577,43.8167438 7.18212245,44.6102096 8.05848338,45.3024375 C7.89209208,45.9227963 7.73101327,46.5448591 7.57955709,47.1528889 C7.32445718,48.1763957 7.86873716,49.2534284 8.84543404,49.6579797 L11.694033,50.8379545 C11.9586554,50.9475121 12.2356067,50.9998351 12.5096511,50.9998351 C13.2475865,50.9998351 13.9644724,50.6210444 14.3611052,49.9618944 C14.6823606,49.4273373 15.008227,48.8737355 15.3307855,48.3148212 C16.4398938,48.4448269 17.5624337,48.4450274 18.6702389,48.3154226 C18.9888882,48.8679219 19.3147546,49.4214234 19.6395183,49.9619946 C20.1829964,50.8661207 21.3292921,51.2427063 22.3062897,50.838155 L25.1547885,49.6582804 C26.1312849,49.2537291 26.6757653,48.1766964 26.4206654,47.1531896 C26.2700111,46.5484676 26.1090326,45.9266052 25.9419396,45.3033396 C26.8168972,44.6118134 27.6106639,43.8179466 28.3028918,42.9415858 C28.9221481,43.1076764 29.544211,43.2686549 30.1532433,43.4204118 C31.1767502,43.6757121 32.2537831,43.131332 32.6584347,42.1544348 L33.8383094,39.3058362 C34.2426603,38.3290392 33.8658742,37.1826434 32.9619485,36.6393658 Z M30.5835552,41.1600965 C29.9984793,41.0135519 29.4020768,40.8585875 28.8090822,40.6988118 C27.9695078,40.4729808 27.0835243,40.7681749 26.551874,41.4512813 C25.940837,42.2361269 25.233674,42.94339 24.4501314,43.5535248 C23.7678268,44.0849745 23.4730335,44.9706573 23.6990651,45.8097304 C23.8597429,46.4065338 24.0146071,47.0025353 24.1602496,47.5835015 L21.5418921,48.6679516 C21.2304597,48.1483297 20.9186264,47.6173812 20.6138095,47.0877357 C20.1800896,46.3345645 19.3453265,45.9171831 18.4872084,46.0234329 C17.5017911,46.1458207 16.5015388,46.1457205 15.5148183,46.0229317 C14.6542946,45.9160805 13.8202332,46.333462 13.3866135,47.0868335 C13.0780879,47.6224932 12.7661543,48.1537424 12.45813,48.6678514 L9.83977241,47.583301 C9.9862168,46.9992275 10.1411812,46.4029253 10.3011574,45.8090287 C10.527189,44.9695547 10.2317943,44.083471 9.54868787,43.5517206 C8.76384216,42.9407839 8.05667914,42.2337212 7.44644406,41.4502789 C6.91519472,40.767774 6.02951188,40.473081 5.19013794,40.6990123 C4.59644175,40.8588882 4.00033991,41.0138527 3.41646682,41.1601968 L2.3319163,38.5419398 C2.84913263,38.2318106 3.38028173,37.9199773 3.91213247,37.6137572 C4.66540393,37.1800373 5.08318642,36.3454747 4.97653561,35.4872566 C4.85394732,34.5017391 4.85424803,33.5015872 4.97683632,32.5147667 C5.08388807,31.6557466 4.66640628,30.820282 3.91273389,30.3864619 C3.38108361,30.080342 2.84983428,29.7684085 2.33181607,29.457778 L3.41636659,26.8395211 C3.99973849,26.985765 4.59594057,27.1407294 5.19073935,27.3008058 C6.02991282,27.5269375 6.91599661,27.2314427 7.44804783,26.5483363 C8.05898456,25.7634907 8.76614758,25.0562276 9.54948975,24.446193 C10.2318946,23.9148435 10.5266878,23.0290606 10.3006563,22.1896868 C10.1412815,21.5978951 9.98631703,21.0018936 9.8394717,20.4161161 L12.4578292,19.331666 C12.7669562,19.8474789 13.0788898,20.3785277 13.3859118,20.9118819 C13.819732,21.6651533 14.6551968,22.0835371 15.5125129,21.9761847 C16.4975293,21.8535964 17.4975812,21.8535964 18.4852037,21.9766859 C19.3447251,22.0837376 20.1796886,21.6657547 20.6133084,20.9124834 C20.919328,20.3808332 21.2313618,19.8495839 21.5416916,19.331666 L24.1600492,20.4161161 C24.0135045,21.000791 23.8585401,21.5970932 23.6986641,22.1905889 C23.4726326,23.0299627 23.7680273,23.9160464 24.4511337,24.4477968 C25.2358792,25.0587335 25.9431424,25.7657961 26.5533775,26.5492384 C27.0846269,27.2315429 27.970009,27.5263361 28.8097839,27.3004048 C29.4030791,27.1406291 29.9990807,26.9856647 30.5833548,26.8392203 L31.667805,29.4574773 C31.1512904,29.7671054 30.6202415,30.0789387 30.0875889,30.38566 C29.3343174,30.8193799 28.9164347,31.6540426 29.0231857,32.5122608 C29.145774,33.4972771 29.1455736,34.4975292 29.0226846,35.4849512 C28.9158333,36.3440714 29.3335155,37.1793356 30.0868872,37.6130555 C30.6177356,37.9186742 31.1489849,38.2306077 31.667805,38.5415389 L30.5835552,41.1600965 Z" id="Shape"></path>
                    <path d="M24.4291112,31.6287458 C24.4291112,31.6287458 24.4291112,31.6287458 24.4290152,31.6286498 C22.846568,27.8090508 18.4510521,25.9886719 14.6298455,27.5707879 C10.809311,29.1529998 8.98834443,33.5477129 10.5709837,37.3673119 C11.3375295,39.2177376 12.779208,40.6587389 14.6299415,41.4252698 C15.5553082,41.8083913 16.5276298,42 17.4999514,42 C18.472273,42 19.4445947,41.8083913 20.3701534,41.4252698 C24.1906879,39.8430579 26.0115584,35.4484408 24.4291112,31.6287458 Z M19.527942,39.392643 C18.2203106,39.9341584 16.7800724,39.9340624 15.4720569,39.392643 C14.1644255,38.8511276 13.1459171,37.8327982 12.6041594,36.5254239 C11.4857879,33.8265823 12.7724865,30.7212923 15.4721529,29.6034147 C16.1332663,29.3296331 16.8184813,29.200038 17.4931338,29.200038 C19.5736486,29.200038 21.5515155,30.4326312 22.3960315,32.4706338 C23.5142109,35.1694754 22.2275124,38.2746695 19.527942,39.392643 Z" id="Shape"></path>
                    <path d="M49.4561145,10.0876638 C49.0607486,10.0284986 48.6546891,9.97103243 48.2457314,9.91646454 C48.0396534,9.23116781 47.7644165,8.56675879 47.4248176,7.93573013 C47.6750694,7.60842274 47.9217233,7.2805157 48.1600821,6.95840525 C48.6892687,6.2427264 48.612714,5.22772369 47.9821875,4.59749455 L46.4023232,3.01782413 C45.7717967,2.38719523 44.7567979,2.31074022 44.0413217,2.84012869 C43.7181131,3.07928796 43.3903073,3.32584287 43.0640006,3.57519613 C42.4330743,3.23559598 41.7687677,2.96035794 41.0832738,2.75417927 C41.0286061,2.34521993 40.9713401,1.93915888 40.9121751,1.54389148 C40.7805531,0.663809374 40.0088102,0 39.1171383,0 L36.8828617,0 C35.9911898,0 35.2194469,0.663809374 35.0878249,1.54379154 C35.0287599,1.93885906 34.9713939,2.34502005 34.9167262,2.75407933 C34.2312323,2.960258 33.5668258,3.23549604 32.9359994,3.57509619 C32.6098926,3.32564299 32.2818869,3.07898813 31.9587783,2.84002875 C31.2431022,2.31064028 30.2281034,2.38709529 29.5977767,3.01762424 L28.0181123,4.59719473 C27.3874859,5.22762374 27.3108313,6.2427264 27.8402177,6.95850519 C28.0783767,7.2805157 28.3250306,7.60852268 28.5751824,7.93573013 C28.2357834,8.56665885 27.9604465,9.23096793 27.7542686,9.91646454 C27.3454108,9.97113237 26.9392514,10.0284986 26.5439855,10.0876638 C25.6638068,10.2193863 25,10.9910322 25,11.8828074 L25,14.1169927 C25,15.008668 25.6636069,15.7804138 26.5437856,15.9121363 C26.9391514,15.9713015 27.3452109,16.0287677 27.7541687,16.0833356 C27.9603466,16.7687322 28.2355835,17.4330413 28.5750825,18.06407 C28.3251305,18.3910776 28.0784766,18.7188847 27.839818,19.0413949 C27.3107313,19.7568738 27.3871861,20.7720764 28.0177126,21.4022056 L29.5975768,22.9820759 C30.2280034,23.6127048 31.2430022,23.6890599 31.9585784,23.1597714 C32.2817869,22.920812 32.6095928,22.6740572 32.9357996,22.4248039 C33.5669257,22.764404 34.2313322,23.0396421 34.9166263,23.2457208 C34.971094,23.6545802 35.02856,24.0607412 35.087725,24.4561085 C35.2194469,25.3361906 35.9911898,26 36.8828617,26 L39.1171383,26 C40.0088102,26 40.7805531,25.3363905 40.9121751,24.4560086 C40.9712401,24.0606412 41.0286061,23.6545802 41.0832738,23.2456208 C41.7686678,23.0396421 42.4329743,22.7642041 43.0640006,22.424604 C43.3901074,22.6740572 43.7181131,22.920712 44.0412217,23.1597714 C44.756698,23.6891598 45.7718966,23.6127048 46.4022233,22.9821759 L47.9820875,21.4025054 C48.6126141,20.7720764 48.6891687,19.7569738 48.1597823,19.0412949 C47.9213235,18.7188847 47.6746696,18.3908777 47.4248176,18.0641699 C47.7642166,17.4332412 48.0395535,16.7690321 48.2457314,16.0834355 C48.6545892,16.0287677 49.0607486,15.9714014 49.4560145,15.9122363 C50.3361932,15.7805138 51,15.0088679 51,14.1170926 L51,11.8829074 C50.9999001,10.9911321 50.3361932,10.2193863 49.4561145,10.0876638 Z M48.8239889,13.8060757 C48.4650015,13.858145 48.0987185,13.9087153 47.7312361,13.9565871 C47.0043666,14.0514313 46.4093191,14.5673277 46.2156338,15.2707138 C46.0300437,15.9442174 45.7607033,16.594135 45.4152079,17.2023771 C45.0543217,17.8373034 45.1099887,18.6230411 45.5570239,19.2043989 C45.7823904,19.4974265 46.005958,19.792353 46.2235291,20.0837815 L45.0838042,21.2236107 C44.7914774,21.0054391 44.496552,20.7819706 44.2041252,20.5571029 C43.6230694,20.1098661 42.8371349,20.0545986 42.2021111,20.4150865 C41.5937714,20.7606831 40.9438563,21.0300246 40.270755,21.2156154 C39.5669719,21.4095013 39.0510774,22.0045512 38.9565334,22.7312235 C38.9086618,23.0987073 38.8581917,23.4650917 38.8060226,23.8240804 L37.1939774,23.8240804 C37.1419083,23.4650917 37.0914381,23.0988072 37.0434666,22.7316233 C36.9486227,22.0046511 36.4328282,21.4096013 35.729245,21.2157154 C35.0559438,21.0302245 34.4062286,20.760883 33.7976891,20.4152864 C33.1626652,20.0544987 32.3767307,20.1099661 31.7957748,20.5571029 C31.5032481,20.7820706 31.2085226,21.0054391 30.9159959,21.2236107 L29.776271,20.0837815 C29.9938421,19.7920531 30.2173097,19.4973266 30.4429761,19.2039992 C30.8897115,18.6228412 30.9453785,17.8371036 30.5845922,17.2021772 C30.2390968,16.5939351 29.9697564,15.9439176 29.7841663,15.2706138 C29.5903811,14.5670279 28.9954335,14.0512314 28.268564,13.9563872 C27.9010817,13.9084154 27.5346987,13.8580451 27.1757113,13.8057758 L27.1757113,12.1939243 C27.5346987,12.141855 27.9009817,12.0912847 28.2684641,12.0434129 C28.9953335,11.9485687 29.5903811,11.4326723 29.7840664,10.7292862 C29.9696564,10.0558825 30.238897,9.40596495 30.5844923,8.79762294 C30.9453785,8.16269657 30.8897115,7.376859 30.4428761,6.79570099 C30.2171099,6.50227366 29.9936422,6.20744716 29.776271,5.91621853 L30.9159959,4.77638928 C31.2083228,4.99456089 31.5031481,5.21802939 31.795475,5.44279712 C32.3763309,5.89003394 33.1621655,5.94580112 33.7976891,5.58491349 C34.4058289,5.2394168 35.0558438,4.9700753 35.7290451,4.78438457 C36.4328282,4.59049867 36.9487227,3.99544883 37.0432667,3.26877645 C37.0912383,2.9012927 37.1418083,2.53500825 37.1938775,2.1760195 L38.8059226,2.1760195 C38.8579918,2.5349083 38.9084619,2.90119276 38.9563336,3.26847663 C39.0511774,3.99544883 39.5670718,4.59049867 40.2705551,4.78428463 C40.9439563,4.96987542 41.5939713,5.23931686 42.202211,5.58481355 C42.8373348,5.94570118 43.6231694,5.88963418 44.2040253,5.44289706 C44.496552,5.21802939 44.7912775,4.99456089 45.0838042,4.77638928 L46.2235291,5.91621853 C46.0061579,6.2075471 45.7826903,6.50247354 45.556924,6.79600081 C45.1100886,7.37705888 45.0545216,8.16279651 45.415108,8.79772288 C45.7606033,9.40616483 46.0299438,10.0561823 46.2155339,10.7293862 C46.4093191,11.4329721 47.0042667,11.9487686 47.7311362,12.0436128 C48.0986185,12.0915846 48.4650015,12.1420549 48.8239889,12.1942242 L48.8239889,13.8060757 Z" id="Shape"></path>
                    <path d="M38,9 C35.5187496,9 33.5,11.0186309 33.5,13.4999515 C33.5,15.9813691 35.5186526,18 38,18 C40.4813474,18 42.5,15.9813691 42.5,13.4999515 C42.5,11.0186309 40.4813474,9 38,9 Z M38,15.9996013 C36.6218077,15.9996013 35.5003233,14.8782259 35.5003233,13.4998545 C35.5003233,12.1214831 36.6217107,11.0002047 38,11.0002047 C39.3782893,11.0002047 40.4995798,12.1215801 40.4996767,13.4998545 C40.4996767,14.8782259 39.3782893,15.9996013 38,15.9996013 Z" id="Shape"></path>
                </g>
            </g>
        </g>
    </g>
</svg>