<?xml version="1.0" encoding="UTF-8"?>
<svg width="88px" height="100px" viewBox="0 0 88 100" version="1.1" xmlns="http://www.w3.org/2000/svg" xmlns:xlink="http://www.w3.org/1999/xlink">
    <!-- Generator: Sketch 53 (72520) - https://sketchapp.com -->
    <title>Group5</title>
    <desc>Created with Sketch.</desc>
    <g id="Page-1" stroke="none" stroke-width="1" fill="none" fill-rule="evenodd">
        <g id="Artboard" transform="translate(-49.000000, -174.000000)">
            <g id="Group5" transform="translate(43.000000, 174.000000)">
                <path d="M52.5,1.44337567 L90.8012702,23.5566243 C92.3482756,24.4497883 93.3012702,26.1004234 93.3012702,27.8867513 L93.3012702,72.1132487 C93.3012702,73.8995766 92.3482756,75.5502117 90.8012702,76.4433757 L52.5,98.5566243 C50.9529946,99.4497883 49.0470054,99.4497883 47.5,98.5566243 L9.19872981,76.4433757 C7.65172443,75.5502117 6.69872981,73.8995766 6.69872981,72.1132487 L6.69872981,27.8867513 C6.69872981,26.1004234 7.65172443,24.4497883 9.19872981,23.5566243 L47.5,1.44337567 C49.0470054,0.550211698 50.9529946,0.550211698 52.5,1.44337567 Z" id="Polygon" fill="#EB5B5C"></path>
                <g id="blueprint" transform="translate(27.000000, 27.000000)" fill="#FFFFFF" fill-rule="nonzero">
                    <path d="M44.3873484,11.7254918 L37.0044275,11.7254918 L41.412942,6.91288612 C41.6577195,6.64532298 41.781908,6.30080903 41.7624698,5.94217566 C41.7426716,5.58318932 41.5817665,5.25350072 41.3092715,5.01347051 L39.413326,3.34384865 C38.8506978,2.84825686 37.9817377,2.89379198 37.4767041,3.4455085 L29.891842,11.7254918 L16.6911364,11.7254918 C16.3095715,11.7254918 16,12.0287065 16,12.4032242 C16,12.7777419 16.3095715,13.0809565 16.6911364,13.0809565 L28.6503161,13.0809565 L25.5668398,16.4470273 C25.3220624,16.7142373 25.1982337,17.0591043 25.2176719,17.4177377 C25.2201917,17.460096 25.2245113,17.5017482 25.2306308,17.5434005 L24.1708883,20.353519 C24.0135827,20.7707479 24.129852,21.2324531 24.467501,21.529667 C24.6744819,21.7121605 24.9358179,21.8067607 25.2003935,21.8067607 C25.3666982,21.8067607 25.5344428,21.7693443 25.6913884,21.6930994 L28.4296564,20.3581078 C28.4469348,20.3588137 28.4638533,20.3605787 28.4814917,20.3605787 C28.5063294,20.3605787 28.5311671,20.3598727 28.5563648,20.3584607 C28.9220911,20.3390465 29.2583002,20.181615 29.5034377,19.9140519 L35.7629018,13.0809565 L44.3873484,13.0809565 C44.5144166,13.0809565 44.6177272,13.1822634 44.6177272,13.3068673 L44.6177272,39.4186245 C44.6177272,39.5432284 44.5144166,39.6445353 44.3873484,39.6445353 L39.3593309,39.6445353 C38.977766,39.6445353 38.6681945,39.9477498 38.6681945,40.3222676 C38.6681945,40.6964323 38.977766,41 39.3593309,41 L44.3873484,41 C45.2764666,41 46,40.2904989 46,39.4186245 L46,13.3068673 C46,12.4346399 45.2764666,11.7254918 44.3873484,11.7254918 Z M40.3776772,6.01489074 L39.5565928,6.91076816 L37.6768458,5.25526572 L38.4979302,4.35903524 L40.3776772,6.01489074 Z M36.7531707,6.26374557 L37.1790115,6.63861623 L27.0283054,17.7198934 L26.6024645,17.3446697 L36.7531707,6.26374557 Z M26.2194598,18.8293271 L27.0178664,19.5328275 L25.7147862,20.1678485 L26.2194598,18.8293271 Z M28.4822116,19.0005251 L28.0563708,18.6256544 L38.2074369,7.54437734 L38.6329178,7.91924801 L28.4822116,19.0005251 Z" id="Shape"></path>
                    <path d="M36.3309664,39.6418922 L6.23943564,39.6418922 C3.53681855,39.6418922 1.3380673,37.4102099 1.3380673,34.6671152 L1.3380673,34.3081362 C1.3380673,31.5650414 3.53647003,29.3337129 6.23908721,29.3337129 L7.61409079,29.3337129 C8.47512309,29.3337129 9.1751693,28.6228283 9.1751693,27.7492538 L9.1751693,13.0265169 L14.387708,13.0265169 C14.7574188,13.0265169 15.0567416,12.7223574 15.0567416,12.347463 C15.0567416,11.972215 14.7574188,11.6684091 14.387708,11.6684091 L9.1751693,11.6684091 L9.1751693,9.31046526 C9.1751693,8.93557094 8.87584641,8.63141139 8.50613565,8.63141139 C8.13677332,8.63141139 7.837102,8.93557094 7.837102,9.31046526 L7.837102,27.7492538 C7.837102,27.8741007 7.73709539,27.9756051 7.61409079,27.9756051 L6.23908721,27.9756051 C4.25359052,27.9756051 2.48134821,28.9220364 1.3380673,30.3936735 L1.3380673,6.33288472 C1.3380673,3.58979008 3.53681855,1.35810776 6.23943564,1.35810776 L7.61409079,1.35810776 C7.73709539,1.35810776 7.837102,1.45961219 7.837102,1.58445905 L7.837102,6.35339785 C7.837102,6.72864583 8.13677332,7.03245173 8.50613565,7.03245173 C8.87584641,7.03245173 9.1751693,6.72864583 9.1751693,6.35339785 L9.1751693,1.58445905 C9.1751693,0.710884484 8.47512309,0 7.61409079,0 L6.23943564,0 C2.7991392,0 0,2.84070872 0,6.33288472 L0,34.6671152 C0,38.1589375 2.7991392,41 6.23943564,41 L36.3309664,41 C36.7006771,41 37,40.6958404 37,40.3209461 C37,39.9456981 36.7006771,39.6418922 36.3309664,39.6418922 Z" id="Path"></path>
                    <path d="M35.8655885,19 C33.138063,19 30.9015823,21.1708491 30.7416102,23.899947 L27.66771,23.899947 C27.2990784,23.899947 27,24.2036117 27,24.577896 L27,32.322051 C27,32.6966884 27.2990784,33 27.66771,33 L35.2949052,33 C35.6638846,33 35.9626152,32.6966884 35.9626152,32.322051 L35.9626152,29.423819 C38.749261,29.3708542 41,27.0545284 41,24.2131453 C41,21.3385709 38.6967484,19 35.8655885,19 L35.8655885,19 Z M34.627543,27.8588867 C33.4580073,27.4482332 32.5461659,26.4733284 32.209181,25.255845 L34.627543,25.255845 L34.627543,27.8588867 Z M28.3354199,31.644102 L28.3354199,25.255845 L30.8348113,25.255845 C31.2298731,27.2233095 32.7197009,28.7903604 34.627543,29.2719866 L34.627543,31.644102 L28.3354199,31.644102 Z M35.9629629,28.067921 L35.9629629,24.577896 C35.9629629,24.2036117 35.6638846,23.899947 35.2952529,23.899947 L32.0805078,23.899947 C32.2380456,21.9190647 33.8749783,20.355898 35.8659364,20.355898 C37.9605285,20.355898 39.6649278,22.0860803 39.6649278,24.2131453 C39.6645801,26.3070191 38.0126934,28.0153093 35.9629629,28.067921 Z" id="Shape"></path>
                    <path d="M38.7101467,30 C38.3177166,30 38,30.4473959 38,31 C38,31.5520833 38.3177166,32 38.7101467,32 L40.2898533,32 C40.6822833,32 41,31.5520833 41,31 C41,30.4473959 40.6822833,30 40.2898533,30 L38.7101467,30 Z" id="Path"></path>
                    <path d="M41,32 C41,31.4479167 40.6822833,31 40.2898533,31 L38.7101467,31 C38.3177166,31 38,31.4479167 38,32 C38,32.5526041 38.3177166,33 38.7101467,33 L40.2898533,33 C40.6822833,33 41,32.5526041 41,32 L41,32 Z" id="Path"></path>
                    <path d="M11.8333333,18 L13.1666667,18 C13.6267361,18 14,17.5526043 14,17 C14,16.4479167 13.6267361,16 13.1666667,16 L11.8333333,16 C11.3732639,16 11,16.4479167 11,17 C11,17.5526043 11.3732639,18 11.8333333,18 Z" id="Path"></path>
                    <path d="M12.6173303,21 L17.3826697,21 C17.723809,21 18,20.5520833 18,20 C18,19.4473959 17.723809,19 17.3826697,19 L12.6173303,19 C12.2765125,19 12,19.4473959 12,20 C12,20.5520833 12.2765125,21 12.6173303,21 Z" id="Path"></path>
                    <path d="M15.8333333,18 L17.1666667,18 C17.6271701,18 18,17.5526043 18,17 C18,16.4479167 17.6271701,16 17.1666667,16 L15.8333333,16 C15.3732639,16 15,16.4479167 15,17 C15,17.5526043 15.3732639,18 15.8333333,18 Z" id="Path"></path>
                    <path d="M22.1666667,16 L20.8333333,16 C20.373264,16 20,16.4479167 20,17 C20,17.5526043 20.373264,18 20.8333333,18 L22.1666667,18 C22.6271702,18 23,17.5526043 23,17 C23,16.4479167 22.6271702,16 22.1666667,16 Z" id="Path"></path>
                    <path d="M12.6173303,23 L17.3826697,23 C17.723809,23 18,22.5520833 18,22 C18,21.4473959 17.723809,21 17.3826697,21 L12.6173303,21 C12.2765125,21 12,21.4473959 12,22 C12,22.5520833 12.2765125,23 12.6173303,23 Z" id="Path"></path>
                    <path d="M12,24 C12,24.5526043 12.3145804,25 12.7023191,25 L21.2976809,25 C21.6857854,25 22,24.5526043 22,24 C22,23.4479168 21.6857854,23 21.2976809,23 L12.7023191,23 C12.3145804,23 12,23.4479168 12,24 Z" id="Path"></path>
                    <path d="M22,26 C22,25.4479168 21.7175272,25 21.3686287,25 L12.6313713,25 C12.2828017,25 12,25.4479168 12,26 C12,26.5526043 12.2828017,27 12.6313713,27 L21.3686287,27 C21.7175272,27 22,26.5526043 22,26 Z" id="Path"></path>
                    <path d="M15,28.6308872 C15,28.2822563 14.7174461,28 14.3691819,28 L12.6308181,28 C12.2825539,28 12,28.2822563 12,28.6308872 L12,30.3691128 C12,30.7177437 12.2825539,31 12.6308181,31 L14.3691819,31 C14.7174461,31 15,30.7177437 15,30.3691128 L15,28.6308872 Z M13.7383638,29.7385543 L13.2616362,29.7385543 L13.2616362,29.2617744 L13.7383638,29.2617744 L13.7383638,29.7385543 Z" id="Shape"></path>
                    <path d="M19,28.6308872 C19,28.2822563 18.7174461,28 18.3691819,28 L16.6308181,28 C16.2825539,28 16,28.2822563 16,28.6308872 L16,30.3691128 C16,30.7177437 16.2825539,31 16.6308181,31 L18.3691819,31 C18.7174461,31 19,30.7177437 19,30.3691128 L19,28.6308872 Z M17.7383638,29.7385543 L17.2616362,29.7385543 L17.2616362,29.2617744 L17.7383638,29.2617744 L17.7383638,29.7385543 Z" id="Shape"></path>
                    <path d="M23,28.6308872 C23,28.2822563 22.7174461,28 22.3691819,28 L20.6308181,28 C20.2822254,28 20,28.2822563 20,28.6308872 L20,30.3691128 C20,30.7177437 20.2822254,31 20.6308181,31 L22.3691819,31 C22.7174461,31 23,30.7177437 23,30.3691128 L23,28.6308872 Z M21.7383638,29.7385543 L21.2616362,29.7385543 L21.2616362,29.2617744 L21.7383638,29.2617744 L21.7383638,29.7385543 Z" id="Shape"></path>
                    <path d="M14.3691819,33 L12.6308181,33 C12.2825539,33 12,33.2822562 12,33.6308872 L12,35.3691128 C12,35.7177437 12.2825539,36 12.6308181,36 L14.3691819,36 C14.7174461,36 15,35.7177437 15,35.3691128 L15,33.6308872 C15,33.2822562 14.7174461,33 14.3691819,33 Z M13.7383638,34.7382256 L13.2616362,34.7382256 L13.2616362,34.2614457 L13.7383638,34.2614457 L13.7383638,34.7382256 Z" id="Shape"></path>
                    <path d="M18.3691819,33 L16.6308181,33 C16.2825539,33 16,33.2822562 16,33.6308872 L16,35.3691128 C16,35.7177437 16.2825539,36 16.6308181,36 L18.3691819,36 C18.7174461,36 19,35.7177437 19,35.3691128 L19,33.6308872 C19,33.2822562 18.7174461,33 18.3691819,33 Z M17.7383638,34.7382256 L17.2616362,34.7382256 L17.2616362,34.2614457 L17.7383638,34.2614457 L17.7383638,34.7382256 Z" id="Shape"></path>
                    <path d="M20.6308181,36 L22.3691819,36 C22.7174461,36 23,35.7177746 23,35.3691819 L23,33.6308181 C23,33.2825539 22.7174461,33 22.3691819,33 L20.6308181,33 C20.2822254,33 20,33.2825539 20,33.6308181 L20,35.3691819 C20,35.7177746 20.2822254,36 20.6308181,36 Z M21.2616362,34.2619648 L21.7383638,34.2619648 L21.7383638,34.7383638 L21.2616362,34.7383638 L21.2616362,34.2619648 Z" id="Shape"></path>
                </g>
            </g>
        </g>
    </g>
</svg>