<?xml version="1.0" encoding="UTF-8"?>
<svg width="88px" height="100px" viewBox="0 0 88 100" version="1.1" xmlns="http://www.w3.org/2000/svg" xmlns:xlink="http://www.w3.org/1999/xlink">
    <!-- Generator: Sketch 53 (72520) - https://sketchapp.com -->
    <title>Group 3</title>
    <desc>Created with Sketch.</desc>
    <g id="Page-1" stroke="none" stroke-width="1" fill="none" fill-rule="evenodd">
        <g id="Artboard" transform="translate(-142.000000, -61.000000)">
            <g id="Group-3" transform="translate(136.000000, 61.000000)">
                <path d="M52.5,1.44337567 L90.8012702,23.5566243 C92.3482756,24.4497883 93.3012702,26.1004234 93.3012702,27.8867513 L93.3012702,72.1132487 C93.3012702,73.8995766 92.3482756,75.5502117 90.8012702,76.4433757 L52.5,98.5566243 C50.9529946,99.4497883 49.0470054,99.4497883 47.5,98.5566243 L9.19872981,76.4433757 C7.65172443,75.5502117 6.69872981,73.8995766 6.69872981,72.1132487 L6.69872981,27.8867513 C6.69872981,26.1004234 7.65172443,24.4497883 9.19872981,23.5566243 L47.5,1.44337567 C49.0470054,0.550211698 50.9529946,0.550211698 52.5,1.44337567 Z" id="Polygon" fill="#EB5B5C"></path>
                <g id="backpack" transform="translate(32.000000, 28.000000)" fill="#FFFFFF" fill-rule="nonzero">
                    <path d="M28.7882363,25 L9.21176367,25 C7.99216342,25 7,25.9638183 7,27.1485758 L7,38.8514242 C7,40.0361817 7.99216342,41 9.21176367,41 L28.7882363,41 C30.0078366,41 31,40.0361817 31,38.8514242 L31,27.1485758 C31,25.9638183 30.0078366,25 28.7882363,25 Z M29.5882716,38.8514242 C29.5882716,39.2799589 29.229374,39.6286032 28.7882363,39.6286032 L9.21176367,39.6286032 C8.77062605,39.6286032 8.41172845,39.2799589 8.41172845,38.8514242 L8.41172845,27.1485758 C8.41172845,26.7200411 8.77062605,26.3713968 9.21176367,26.3713968 L28.7882363,26.3713968 C29.229374,26.3713968 29.5882716,26.7200411 29.5882716,27.1485758 L29.5882716,38.8514242 Z" id="Shape"></path>
                    <path d="M27.293172,29 L10.706828,29 C10.3165165,29 10,29.3310362 10,29.7394587 C10,30.1478812 10.3164283,30.4789174 10.706828,30.4789174 L22.8167124,30.4789174 L22.8167124,31.4878907 C21.9412226,31.7972514 21.308895,32.6640884 21.308895,33.6831155 C21.308895,34.960681 22.3023511,36 23.5235404,36 C24.7447296,36 25.7381857,34.960681 25.7381857,33.6831155 C25.7381857,32.6640884 25.1058582,31.7972514 24.2303683,31.4878907 L24.2303683,30.4789174 L27.293172,30.4789174 C27.6834835,30.4789174 28,30.1478812 28,29.7394587 C28,29.3310362 27.6834835,29 27.293172,29 Z M24.3246179,33.6830232 C24.3246179,34.1451273 23.9652527,34.5210826 23.5235404,34.5210826 C23.081828,34.5210826 22.7224628,34.1451273 22.7224628,33.6830232 C22.7224628,33.2209192 23.081828,32.8449639 23.5235404,32.8449639 C23.9652527,32.8450561 24.3246179,33.2209192 24.3246179,33.6830232 Z" id="Shape"></path>
                    <path d="M34.8208043,24.9853828 L34.0325495,24.9853828 L34.0325495,13.9164609 C34.0325495,12.6434688 33.7720246,11.402875 33.2897542,10.2599922 C33.2899278,10.2540625 33.2907086,10.2481328 33.2907086,10.2422031 L33.2907086,1.4238125 C33.2907953,0.6386875 32.6460331,0 31.8534405,0 L28.88599,0 C28.0933975,0 27.4486353,0.6386875 27.4486353,1.4238125 L27.4486353,4.41039844 C27.4331061,4.41014062 27.4178373,4.40919531 27.4023081,4.40919531 L24.3885305,4.40919531 L24.3885305,2.89351563 C24.3885305,1.298 23.0780981,0 21.4674939,0 L15.5326796,0 C13.9219886,0 12.611643,1.29808594 12.611643,2.89351563 L12.611643,4.40919531 L9.59786536,4.40919531 C9.58224948,4.40919531 9.56698063,4.41005469 9.55153826,4.41039844 L9.55153826,1.4238125 C9.5514515,0.6386875 8.90668927,0 8.11409673,0 L5.14664622,0 C4.35405368,0 3.70929145,0.6386875 3.70929145,1.4238125 L3.70929145,10.2422031 C3.70929145,10.2481328 3.71007224,10.2539766 3.71024575,10.2599063 C3.2279754,11.4027891 2.96745051,12.6434688 2.96745051,13.9164609 L2.96745051,24.9853828 L2.17919571,24.9853828 C0.977553935,24.9853828 0,25.9537266 0,27.1440469 L0,38.9018438 C0,40.0921641 0.977553935,41.0605078 2.17919571,41.0605078 L3.03442527,41.0605078 C3.36045009,42.7328516 4.84846971,44 6.63041485,44 L30.3697587,44 C32.1517038,44 33.6396367,42.7328516 33.9655747,41.0605078 L34.8208043,41.0605078 C36.0224461,41.0605078 37,40.0921641 37,38.9018438 L37,27.1440469 C37,25.9537266 36.0224461,24.9853828 34.8208043,24.9853828 Z M2.96745051,39.6826719 L2.17919571,39.6826719 C1.74455379,39.6826719 1.39094092,39.3323906 1.39094092,38.9018437 L1.39094092,30.7724141 L2.96745051,30.7724141 L2.96745051,39.6826719 Z M2.96745051,29.3945781 L1.39102767,29.3945781 L1.39102767,27.1440469 C1.39102767,26.7135 1.74464054,26.3632188 2.17928247,26.3632188 L2.96753726,26.3632188 L2.96753726,29.3945781 L2.96745051,29.3945781 Z M28.8396629,1.4238125 C28.8396629,1.39846094 28.8603973,1.37792187 28.88599,1.37792187 L31.8534405,1.37792187 C31.8790332,1.37792187 31.8997676,1.39846094 31.8997676,1.4238125 L31.8997676,7.94784375 C31.2179611,7.10909375 30.389799,6.38034375 29.4401802,5.80404688 C29.3127373,5.47155469 29.1046991,5.17825 28.8396629,4.94725 L28.8396629,1.4238125 L28.8396629,1.4238125 Z M14.0025839,2.89351563 C14.0025839,2.05777344 14.6889885,1.37783594 15.5326796,1.37783594 L21.4674939,1.37783594 C22.311185,1.37783594 22.9975896,2.05777344 22.9975896,2.89351563 L22.9975896,4.40919531 L14.0025839,4.40919531 L14.0025839,2.89351563 Z M8.80961056,6.56785937 C8.80961056,6.1373125 9.16322344,5.78703125 9.59786536,5.78703125 L27.4023949,5.78703125 C27.8370368,5.78703125 28.1906497,6.1373125 28.1906497,6.56785937 L28.1906497,13.9164609 C28.1906497,17.5886563 25.1747032,20.5761875 21.4675806,20.5761875 L20.6793258,20.5761875 L20.6793258,18.3256563 C20.6793258,17.9452109 20.3679626,17.6366953 19.983812,17.6366953 L17.0163615,17.6366953 C16.6322977,17.6366953 16.3208477,17.945125 16.3208477,18.3256563 L16.3208477,20.5761875 L15.5325929,20.5761875 C11.8254703,20.5761875 8.80952381,17.5886563 8.80952381,13.9164609 L8.80952381,6.56785937 L8.80961056,6.56785937 Z M19.2882982,19.0146172 L19.2882982,21.2642031 C19.2882982,21.2644609 19.2882982,21.2647187 19.2882982,21.2651484 C19.2882982,21.2653203 19.2882982,21.2654062 19.2882982,21.2655781 C19.2880379,21.6959531 18.9345985,22.0458906 18.5000434,22.0458906 C18.0654015,22.0458906 17.7117886,21.6956094 17.7117886,21.2650625 L17.7117886,19.0145312 L19.2882982,19.0145312 L19.2882982,19.0146172 Z M5.10031912,1.4238125 C5.10031912,1.39846094 5.12105353,1.37792188 5.14664622,1.37792188 L8.11409673,1.37792188 C8.13968942,1.37792188 8.16042383,1.39846094 8.16042383,1.4238125 L8.16042383,4.94733594 C7.89538769,5.17825 7.6873495,5.47155469 7.55990659,5.80413281 C6.61020097,6.38042969 5.78203893,7.10917969 5.10031912,7.94792969 L5.10031912,1.4238125 L5.10031912,1.4238125 Z M32.6416086,40.3716328 C32.6416086,41.6125703 31.6224123,42.6221641 30.3696719,42.6221641 L6.63041485,42.6221641 C5.37767445,42.6221641 4.35847818,41.6125703 4.35847818,40.3716328 L4.35847818,13.9164609 C4.35847818,11.4450703 5.50650544,9.11659375 7.41866965,7.585875 L7.41866965,13.9164609 C7.41866965,18.3484297 11.0585572,21.9540234 15.5326796,21.9540234 L16.4352773,21.9540234 C16.7262532,22.8073828 17.5415755,23.4237266 18.5000434,23.4237266 C19.4585112,23.4237266 20.2738336,22.8073828 20.5648094,21.9540234 L21.4674939,21.9540234 C25.9416163,21.9540234 29.5815039,18.3484297 29.5815039,13.9164609 L29.5815039,7.585875 C31.4936681,9.11659375 32.6416086,11.4450703 32.6416086,13.9164609 L32.6416086,40.3716328 L32.6416086,40.3716328 Z M35.6090591,38.9018437 C35.6090591,39.3323906 35.2554462,39.6826719 34.8208043,39.6826719 L34.0325495,39.6826719 L34.0325495,30.7724141 L35.6089723,30.7724141 L35.6089723,38.9018437 L35.6090591,38.9018437 Z M35.6090591,29.3945781 L34.0326362,29.3945781 L34.0326362,26.3633047 L34.820891,26.3633047 C35.255533,26.3633047 35.6091458,26.7135859 35.6091458,27.1441328 L35.6091458,29.3945781 L35.6090591,29.3945781 Z" id="Shape"></path>
                </g>
            </g>
        </g>
    </g>
</svg>