<?xml version="1.0" encoding="UTF-8"?>
<svg width="54px" height="62px" viewBox="0 0 54 62" version="1.1" xmlns="http://www.w3.org/2000/svg" xmlns:xlink="http://www.w3.org/1999/xlink">
    <!-- Generator: Sketch 53 (72520) - https://sketchapp.com -->
    <title>Group</title>
    <desc>Created with Sketch.</desc>
    <g id="Page-1" stroke="none" stroke-width="1" fill="none" fill-rule="evenodd">
        <g id="Artboard" transform="translate(-260.000000, -333.000000)">
            <g id="Group" transform="translate(256.000000, 333.000000)">
                <path d="M33.5,1.44337567 L55.3467875,14.0566243 C56.8937929,14.9497883 57.8467875,16.6004234 57.8467875,18.3867513 L57.8467875,43.6132487 C57.8467875,45.3995766 56.8937929,47.0502117 55.3467875,47.9433757 L33.5,60.5566243 C31.9529946,61.4497883 30.0470054,61.4497883 28.5,60.5566243 L6.65321248,47.9433757 C5.1062071,47.0502117 4.15321248,45.3995766 4.15321248,43.6132487 L4.15321248,18.3867513 C4.15321248,16.6004234 5.1062071,14.9497883 6.65321248,14.0566243 L28.5,1.44337567 C30.0470054,0.550211698 31.9529946,0.550211698 33.5,1.44337567 Z" id="Polygon" fill="#FFFFFF"></path>
                <g id="cancel" transform="translate(23.000000, 23.000000)" fill="#092642" fill-rule="nonzero">
                    <path d="M10.3013699,8.25570776 C10.1552511,8.10958904 10.1552511,7.89041096 10.3013699,7.74429224 L15.7808219,2.26484018 C15.9269406,2.11872146 16,1.89954338 16,1.75342466 C16,1.60730594 15.9269406,1.38812785 15.7808219,1.24200913 L14.7579909,0.219178082 C14.6118721,0.0730593607 14.3926941,0 14.2465753,0 C14.0273973,0 13.8812785,0.0730593607 13.7351598,0.219178082 L8.25570776,5.69863014 C8.10958904,5.84474886 7.89041096,5.84474886 7.74429224,5.69863014 L2.26484018,0.219178082 C2.11872146,0.0730593607 1.89954338,0 1.75342466,0 C1.60730594,0 1.38812785,0.0730593607 1.24200913,0.219178082 L0.219178082,1.24200913 C0.0730593607,1.38812785 0,1.60730594 0,1.75342466 C0,1.89954338 0.0730593607,2.11872146 0.219178082,2.26484018 L5.69863014,7.74429224 C5.84474886,7.89041096 5.84474886,8.10958904 5.69863014,8.25570776 L0.219178082,13.7351598 C0.0730593607,13.8812785 0,14.1004566 0,14.2465753 C0,14.3926941 0.0730593607,14.6118721 0.219178082,14.7579909 L1.24200913,15.7808219 C1.38812785,15.9269406 1.60730594,16 1.75342466,16 C1.89954338,16 2.11872146,15.9269406 2.26484018,15.7808219 L7.74429224,10.3013699 C7.89041096,10.1552511 8.10958904,10.1552511 8.25570776,10.3013699 L13.7351598,15.7808219 C13.8812785,15.9269406 14.1004566,16 14.2465753,16 C14.3926941,16 14.6118721,15.9269406 14.7579909,15.7808219 L15.7808219,14.7579909 C15.9269406,14.6118721 16,14.3926941 16,14.2465753 C16,14.1004566 15.9269406,13.8812785 15.7808219,13.7351598 L10.3013699,8.25570776 Z" id="Path"></path>
                </g>
            </g>
        </g>
    </g>
</svg>