<?xml version="1.0" encoding="UTF-8"?>
<svg width="88px" height="100px" viewBox="0 0 88 100" version="1.1" xmlns="http://www.w3.org/2000/svg" xmlns:xlink="http://www.w3.org/1999/xlink">
    <!-- Generator: Sketch 53 (72520) - https://sketchapp.com -->
    <title>Group4</title>
    <desc>Created with Sketch.</desc>
    <g id="Page-1" stroke="none" stroke-width="1" fill="none" fill-rule="evenodd">
        <g id="Artboard" transform="translate(-49.000000, -314.000000)">
            <g id="Group4" transform="translate(43.000000, 314.000000)">
                <path d="M52.5,1.44337567 L90.8012702,23.5566243 C92.3482756,24.4497883 93.3012702,26.1004234 93.3012702,27.8867513 L93.3012702,72.1132487 C93.3012702,73.8995766 92.3482756,75.5502117 90.8012702,76.4433757 L52.5,98.5566243 C50.9529946,99.4497883 49.0470054,99.4497883 47.5,98.5566243 L9.19872981,76.4433757 C7.65172443,75.5502117 6.69872981,73.8995766 6.69872981,72.1132487 L6.69872981,27.8867513 C6.69872981,26.1004234 7.65172443,24.4497883 9.19872981,23.5566243 L47.5,1.44337567 C49.0470054,0.550211698 50.9529946,0.550211698 52.5,1.44337567 Z" id="Polygon" fill="#EB5B5C"></path>
                <g id="web" transform="translate(28.000000, 29.000000)" fill="#FFFFFF" fill-rule="nonzero">
                    <path d="M39.4166667,0 L4.58333333,0 C2.05333333,0.00310227273 0.00297916667,2.13818182 0,4.77272727 L0,30.5454545 C0.00297916667,33.18 2.05333333,35.3150795 4.58333333,35.3181818 L17.1178333,35.3181818 L15.8088333,40.0909091 L12.8333333,40.0909091 L12.8333333,42 L31.1666667,42 L31.1666667,40.0909091 L28.1911667,40.0909091 L26.8821667,35.3181818 L39.4166667,35.3181818 C41.9466667,35.3150795 43.9970208,33.18 44,30.5454545 L44,4.77272727 C43.9970208,2.13818182 41.9466667,0.00310227273 39.4166667,0 Z M17.7155,40.0909091 L19.0245,35.3181818 L24.9755,35.3181818 L26.2845,40.0909091 L17.7155,40.0909091 Z M42.1666667,30.5454545 C42.1666667,32.127017 40.9354688,33.4090909 39.4166667,33.4090909 L4.58333333,33.4090909 C3.06453125,33.4090909 1.83333333,32.127017 1.83333333,30.5454545 L1.83333333,28.6363636 L42.1666667,28.6363636 L42.1666667,30.5454545 Z M42.1666667,26.7272727 L1.83333333,26.7272727 L1.83333333,4.77272727 C1.83333333,3.19116477 3.06453125,1.90909091 4.58333333,1.90909091 L39.4166667,1.90909091 C40.9354688,1.90909091 42.1666667,3.19116477 42.1666667,4.77272727 L42.1666667,26.7272727 Z" id="Shape"></path>
                    <polygon id="Rectangle" transform="translate(21.993808, 15.364470) rotate(-74.031780) translate(-21.993808, -15.364470) " points="15.0482204 14.5269712 28.9619169 14.3630216 28.9393965 16.2019695 15.0257001 16.365919"></polygon>
                    <path d="M17,11.4646325 L15.6596073,10 L9.37651644,14.7676838 C8.93238045,15.1049974 8.87256019,15.7062023 9.24300076,16.1107403 C9.28344815,16.1548414 9.32808428,16.1956051 9.37651644,16.2323162 L15.6596073,21 L17,19.5353675 L11.6824108,15.5 L17,11.4646325 Z" id="Path"></path>
                    <path d="M34.7569992,14.8892597 C34.7165518,14.8451586 34.6719157,14.8043949 34.6234836,14.7676838 L28.3403927,10 L27,11.4646325 L32.3175892,15.5 L27,19.5353675 L28.3403927,21 L34.6234836,16.2323162 C35.0676195,15.8950026 35.1274398,15.2937977 34.7569992,14.8892597 Z" id="Path"></path>
                </g>
            </g>
        </g>
    </g>
</svg>