# This file uses centimeters as units for non-parametric coordinates.

mtllib pinetree.mtl
g default
v 1.431945 0.029688 7.683232
v 1.252093 0.029688 7.593225
v 0.951774 0.029688 7.854126
v 1.134447 0.029688 8.032071
v 1.207509 0.029688 8.310392
v 1.512282 0.029688 8.238250
v 1.597935 0.029688 7.962166
v 1.469081 1.187237 7.790577
v 1.253220 1.187237 7.741308
v 1.080112 1.187237 7.879357
v 1.080112 1.187237 8.100769
v 1.253220 1.187237 8.238818
v 1.469081 1.187237 8.189549
v 1.565148 1.187237 7.990063
v 1.480761 2.280262 7.827876
v 1.264899 2.280262 7.778607
v 1.091792 2.280262 7.916656
v 1.091792 2.280262 8.138069
v 1.264899 2.280262 8.276117
v 1.480761 2.280262 8.226848
v 1.576828 2.280262 8.027362
v 1.439436 3.503614 7.837666
v 1.223575 3.503614 7.788397
v 1.050467 3.503614 7.926446
v 1.050467 3.503614 8.147858
v 1.223575 3.503614 8.285907
v 1.439436 3.503614 8.236638
v 1.535504 3.503614 8.037152
v 1.452199 4.218544 7.795627
v 1.236337 4.218544 7.746358
v 1.063230 4.218544 7.884406
v 1.063230 4.218544 8.105819
v 1.236337 4.218544 8.243868
v 1.452199 4.218544 8.194599
v 1.548266 4.218544 7.995113
v 1.448607 5.286935 7.799746
v 1.259621 5.286935 7.756611
v 1.108065 5.286935 7.877472
v 1.108065 5.286935 8.071319
v 1.259621 5.286935 8.192180
v 1.448607 5.286935 8.149045
v 1.532714 5.286935 7.974395
vt 0.597420 0.034089
vt 0.465231 0.003918
vt 0.359224 0.088456
vt 0.359224 0.224044
vt 0.465231 0.308582
vt 0.597420 0.278411
vt 0.656250 0.156250
vt 0.375000 0.312500
vt 0.410714 0.312500
vt 0.446429 0.312500
vt 0.482143 0.312500
vt 0.517857 0.312500
vt 0.553571 0.312500
vt 0.589286 0.312500
vt 0.625000 0.312500
vt 0.375000 0.387688
vt 0.410714 0.387688
vt 0.446429 0.387688
vt 0.482143 0.387688
vt 0.517857 0.387688
vt 0.553571 0.387688
vt 0.589286 0.387688
vt 0.625000 0.387688
vt 0.375000 0.462876
vt 0.410714 0.462876
vt 0.446429 0.462876
vt 0.482143 0.462876
vt 0.517857 0.462876
vt 0.553571 0.462876
vt 0.589286 0.462876
vt 0.625000 0.462876
vt 0.375000 0.538064
vt 0.410714 0.538064
vt 0.446429 0.538064
vt 0.482143 0.538064
vt 0.517857 0.538064
vt 0.553571 0.538064
vt 0.589286 0.538064
vt 0.625000 0.538064
vt 0.375000 0.613252
vt 0.410714 0.613252
vt 0.446429 0.613252
vt 0.482143 0.613252
vt 0.517857 0.613252
vt 0.553571 0.613252
vt 0.589286 0.613252
vt 0.625000 0.613252
vt 0.375000 0.688440
vt 0.410714 0.688440
vt 0.446429 0.688440
vt 0.482143 0.688440
vt 0.517857 0.688440
vt 0.553571 0.688440
vt 0.589286 0.688440
vt 0.625000 0.688440
vt 0.597420 0.721589
vt 0.465231 0.691418
vt 0.359224 0.775956
vt 0.359224 0.911544
vt 0.465231 0.996082
vt 0.597420 0.965911
vt 0.656250 0.843750
vn 0.330395 0.098111 -0.938730
vn 0.330395 0.098111 -0.938730
vn 0.283764 0.068844 -0.956420
vn 0.266190 0.057907 -0.962180
vn -0.641609 0.092879 -0.761388
vn -0.641609 0.092879 -0.761388
vn -0.635404 0.071897 -0.768826
vn -0.636096 0.074185 -0.768035
vn -0.909312 0.012192 0.415935
vn -0.909313 0.012192 0.415935
vn -0.988210 0.011468 0.152672
vn -0.966762 0.011850 0.255404
vn -0.860803 -0.002574 0.508932
vn -0.860803 -0.002574 0.508932
vn -0.754763 -0.011468 0.655898
vn -0.776317 -0.009846 0.630266
vn 0.226817 0.050285 0.972638
vn 0.226817 0.050285 0.972638
vn 0.225218 0.015440 0.974186
vn 0.225366 0.018443 0.974100
vn 0.933592 0.033848 0.356736
vn 0.933592 0.033848 0.356736
vn 0.923036 0.013214 0.384487
vn 0.919642 0.007034 0.392695
vn 0.876740 0.026407 -0.480239
vn 0.876740 0.026407 -0.480239
vn 0.883683 0.020573 -0.467633
vn 0.889299 0.015715 -0.457057
vn 0.222465 0.022356 -0.974684
vn 0.222462 0.023091 -0.974668
vn -0.623483 0.004539 -0.781823
vn -0.623446 0.011818 -0.781777
vn -0.999868 -0.016264 -0.000000
vn -0.999951 -0.009854 -0.000000
vn -0.623310 -0.023990 0.781606
vn -0.623314 -0.023779 0.781610
vn 0.222480 -0.019208 0.974748
vn 0.222495 -0.015262 0.974814
vn 0.900968 -0.001434 0.433883
vn 0.900947 0.006897 0.433873
vn 0.900804 0.019139 -0.433804
vn 0.900752 0.021950 -0.433779
vn 0.222489 -0.016850 -0.974790
vn 0.222510 -0.010016 -0.974879
vn -0.623344 -0.021586 -0.781649
vn -0.623331 -0.022553 -0.781633
vn -0.999814 -0.019290 -0.000000
vn -0.999934 -0.011501 -0.000000
vn -0.623489 -0.001475 0.781831
vn -0.623461 0.009576 0.781796
vn 0.222481 0.018926 0.974753
vn 0.222475 0.020385 0.974725
vn 0.900794 0.019718 0.433799
vn 0.900756 0.021738 0.433781
vn 0.900969 0.000694 -0.433884
vn 0.900901 0.012233 -0.433851
vn 0.222444 -0.026218 -0.974593
vn 0.222463 -0.022758 -0.974675
vn -0.623459 -0.009890 -0.781793
vn -0.623486 0.003583 -0.781826
vn -0.999589 0.028673 -0.000000
vn -0.999399 0.034666 -0.000000
vn -0.622580 0.054001 0.780691
vn -0.622593 0.053617 0.780707
vn 0.222283 0.046231 0.973885
vn 0.222265 0.047934 0.973807
vn 0.900823 0.018014 0.433813
vn 0.900872 0.014669 0.433837
vn 0.900912 -0.011214 -0.433857
vn 0.900798 -0.019486 -0.433801
vn 0.222519 0.004506 -0.974918
vn 0.222519 0.004506 -0.974918
vn -0.623351 0.021086 -0.781658
vn -0.623351 0.021086 -0.781658
vn -0.999121 0.041929 -0.000000
vn -0.999121 0.041929 -0.000000
vn -0.622667 0.051344 0.780800
vn -0.622667 0.051344 0.780800
vn 0.222322 0.042279 0.974056
vn 0.222322 0.042279 0.974056
vn 0.900760 0.021523 0.433783
vn 0.900760 0.021523 0.433783
vn 0.900959 0.004701 -0.433879
vn 0.900959 0.004701 -0.433879
vn 0.000000 -1.000000 0.000000
vn 0.000000 -1.000000 0.000000
vn 0.000000 -1.000000 0.000000
vn 0.000000 -1.000000 0.000000
vn 0.000000 -1.000000 0.000000
vn 0.000000 -1.000000 0.000000
vn 0.000000 -1.000000 0.000000
vn -0.000000 1.000000 0.000000
vn -0.000000 1.000000 0.000000
vn -0.000000 1.000000 0.000000
vn -0.000000 1.000000 0.000000
vn -0.000000 1.000000 0.000000
vn -0.000000 1.000000 0.000000
vn -0.000000 1.000000 0.000000
s 1
g pCylinder9 Pine_Tree
usemtl lambert16SG
f 1/8/1 2/9/2 9/17/3 8/16/4
s 2
f 2/9/5 3/10/6 10/18/7 9/17/8
s 3
f 3/10/9 4/11/10 11/19/11 10/18/12
s 4
f 4/11/13 5/12/14 12/20/15 11/19/16
s 5
f 5/12/17 6/13/18 13/21/19 12/20/20
s 6
f 6/13/21 7/14/22 14/22/23 13/21/24
s 7
f 7/14/25 1/15/26 8/23/27 14/22/28
s 1
f 8/16/4 9/17/3 16/25/29 15/24/30
s 2
f 9/17/8 10/18/7 17/26/31 16/25/32
s 3
f 10/18/12 11/19/11 18/27/33 17/26/34
s 4
f 11/19/16 12/20/15 19/28/35 18/27/36
s 5
f 12/20/20 13/21/19 20/29/37 19/28/38
s 6
f 13/21/24 14/22/23 21/30/39 20/29/40
s 7
f 14/22/28 8/23/27 15/31/41 21/30/42
s 1
f 15/24/30 16/25/29 23/33/43 22/32/44
s 2
f 16/25/32 17/26/31 24/34/45 23/33/46
s 3
f 17/26/34 18/27/33 25/35/47 24/34/48
s 4
f 18/27/36 19/28/35 26/36/49 25/35/50
s 5
f 19/28/38 20/29/37 27/37/51 26/36/52
s 6
f 20/29/40 21/30/39 28/38/53 27/37/54
s 7
f 21/30/42 15/31/41 22/39/55 28/38/56
s 1
f 22/32/44 23/33/43 30/41/57 29/40/58
s 2
f 23/33/46 24/34/45 31/42/59 30/41/60
s 3
f 24/34/48 25/35/47 32/43/61 31/42/62
s 4
f 25/35/50 26/36/49 33/44/63 32/43/64
s 5
f 26/36/52 27/37/51 34/45/65 33/44/66
s 6
f 27/37/54 28/38/53 35/46/67 34/45/68
s 7
f 28/38/56 22/39/55 29/47/69 35/46/70
s 1
f 29/40/58 30/41/57 37/49/71 36/48/72
s 2
f 30/41/60 31/42/59 38/50/73 37/49/74
s 3
f 31/42/62 32/43/61 39/51/75 38/50/76
s 4
f 32/43/64 33/44/63 40/52/77 39/51/78
s 5
f 33/44/66 34/45/65 41/53/79 40/52/80
s 6
f 34/45/68 35/46/67 42/54/81 41/53/82
s 7
f 35/46/70 29/47/69 36/55/83 42/54/84
s off
f 1/1/85 7/7/86 6/6/87 5/5/88 4/4/89 3/3/90 2/2/91
f 36/61/92 37/60/93 38/59/94 39/58/95 40/57/96 41/56/97 42/62/98
g default
v 2.113485 1.615167 6.958138
v 0.914023 1.620347 6.672130
v -0.057350 1.639068 7.431486
v -0.069169 1.657234 8.664396
v 0.887465 1.661164 9.442454
v 2.092187 1.647900 9.179766
v 2.637818 1.627430 8.074141
v 1.239126 4.479946 8.018704
vt 0.655872 0.054542
vt 0.444370 0.006268
vt 0.274758 0.141529
vt 0.274758 0.358471
vt 0.444370 0.493732
vt 0.655872 0.445458
vt 0.750000 0.250000
vt 0.250000 0.500000
vt 0.321429 0.500000
vt 0.392857 0.500000
vt 0.464286 0.500000
vt 0.535714 0.500000
vt 0.607143 0.500000
vt 0.678571 0.500000
vt 0.750000 0.500000
vt 0.500000 1.000000
vn -0.007812 -0.999862 0.014657
vn -0.007812 -0.999862 0.014657
vn -0.007812 -0.999862 0.014657
vn -0.007812 -0.999862 0.014657
vn -0.007812 -0.999862 0.014657
vn -0.007812 -0.999862 0.014657
vn -0.007812 -0.999862 0.014657
vn 0.214599 0.396024 -0.892812
vn 0.214599 0.396024 -0.892812
vn 0.214599 0.396024 -0.892811
vn -0.558386 0.404535 -0.724263
vn -0.558386 0.404535 -0.724263
vn -0.558386 0.404535 -0.724263
vn -0.908478 0.417669 -0.014863
vn -0.908478 0.417669 -0.014863
vn -0.908478 0.417669 -0.014863
vn -0.572051 0.425537 0.701196
vn -0.572051 0.425537 0.701196
vn -0.572051 0.425537 0.701196
vn 0.197558 0.422214 0.884707
vn 0.197558 0.422214 0.884707
vn 0.197558 0.422214 0.884707
vn 0.820818 0.410202 0.397482
vn 0.820818 0.410202 0.397482
vn 0.820818 0.410202 0.397482
vn 0.828402 0.398546 -0.393588
vn 0.828402 0.398546 -0.393588
vn 0.828402 0.398546 -0.393588
s off
g Pine_Tree pCone2
usemtl lambert15SG
f 43/63/99 49/69/100 48/68/101 47/67/102 46/66/103 45/65/104 44/64/105
f 43/70/106 44/71/107 50/78/108
f 44/71/109 45/72/110 50/78/111
f 45/72/112 46/73/113 50/78/114
f 46/73/115 47/74/116 50/78/117
f 47/74/118 48/75/119 50/78/120
f 48/75/121 49/76/122 50/78/123
f 49/76/124 43/77/125 50/78/126
g default
v 2.190876 2.455499 6.211637
v 0.125427 2.491944 6.254551
v -0.870440 2.492584 8.064937
v 0.199143 2.456777 9.832410
v 2.264592 2.420332 9.789497
v 3.260458 2.419692 7.979110
v 1.261039 6.156962 8.057039
vt 0.625000 0.033494
vt 0.375000 0.033494
vt 0.250000 0.250000
vt 0.375000 0.466506
vt 0.625000 0.466506
vt 0.750000 0.250000
vt 0.250000 0.500000
vt 0.333333 0.500000
vt 0.416667 0.500000
vt 0.500000 0.500000
vt 0.583333 0.500000
vt 0.666667 0.500000
vt 0.750000 0.500000
vt 0.500000 1.000000
vn -0.017838 -0.999796 -0.009460
vn -0.017838 -0.999796 -0.009460
vn -0.017838 -0.999796 -0.009460
vn -0.017838 -0.999796 -0.009460
vn -0.017838 -0.999796 -0.009460
vn -0.017838 -0.999796 -0.009460
vn -0.010781 0.443986 -0.895969
vn -0.010781 0.443986 -0.895969
vn -0.010781 0.443986 -0.895969
vn -0.780920 0.453316 -0.429732
vn -0.780920 0.453316 -0.429732
vn -0.780920 0.453316 -0.429732
vn -0.762375 0.444468 0.470354
vn -0.762375 0.444468 0.470354
vn -0.762375 0.444468 0.470354
vn 0.026309 0.426292 0.904203
vn 0.026309 0.426292 0.904203
vn 0.026309 0.426292 0.904203
vn 0.796447 0.416962 0.437966
vn 0.796447 0.416962 0.437966
vn 0.796447 0.416962 0.437966
vn 0.777902 0.425809 -0.462120
vn 0.777902 0.425810 -0.462120
vn 0.777902 0.425810 -0.462120
s off
g Pine_Tree pCone3
usemtl lambert15SG
f 51/79/127 56/84/128 55/83/129 54/82/130 53/81/131 52/80/132
f 51/85/133 52/86/134 57/92/135
f 52/86/136 53/87/137 57/92/138
f 53/87/139 54/88/140 57/92/141
f 54/88/142 55/89/143 57/92/144
f 55/89/145 56/90/146 57/92/147
f 56/90/148 51/91/149 57/92/150
g default
v 1.933701 4.695815 6.775161
v 0.480303 4.639048 6.866045
v -0.169225 4.650652 8.170586
v 0.634647 4.719022 9.384245
v 2.088045 4.775790 9.293361
v 2.737573 4.764186 7.988819
v 1.171875 7.453957 7.999360
vt 0.625000 0.033494
vt 0.375000 0.033494
vt 0.250000 0.250000
vt 0.375000 0.466506
vt 0.625000 0.466506
vt 0.750000 0.250000
vt 0.250000 0.500000
vt 0.333333 0.500000
vt 0.416667 0.500000
vt 0.500000 0.500000
vt 0.583333 0.500000
vt 0.666667 0.500000
vt 0.750000 0.500000
vt 0.500000 1.000000
vn 0.040836 -0.998739 0.029216
vn 0.040836 -0.998739 0.029216
vn 0.040836 -0.998739 0.029216
vn 0.040836 -0.998739 0.029216
vn 0.040836 -0.998739 0.029216
vn 0.040836 -0.998739 0.029216
vn -0.072606 0.387791 -0.918883
vn -0.072606 0.387791 -0.918883
vn -0.072606 0.387791 -0.918883
vn -0.829780 0.371529 -0.416450
vn -0.829780 0.371529 -0.416450
vn -0.829780 0.371529 -0.416450
vn -0.774208 0.400325 0.490247
vn -0.774208 0.400325 0.490247
vn -0.774208 0.400325 0.490247
vn 0.038540 0.445382 0.894511
vn 0.038540 0.445382 0.894511
vn 0.038540 0.445382 0.894511
vn 0.795714 0.461643 0.392077
vn 0.795714 0.461643 0.392077
vn 0.795714 0.461643 0.392077
vn 0.740141 0.432848 -0.514620
vn 0.740141 0.432848 -0.514620
vn 0.740141 0.432848 -0.514620
s off
g Pine_Tree pCone4
usemtl lambert15SG
f 58/93/151 63/98/152 62/97/153 61/96/154 60/95/155 59/94/156
f 58/99/157 59/100/158 64/106/159
f 59/100/160 60/101/161 64/106/162
f 60/101/163 61/102/164 64/106/165
f 61/102/166 62/103/167 64/106/168
f 62/103/169 63/104/170 64/106/171
f 63/104/172 58/105/173 64/106/174
g default
v 2.358513 3.567003 6.345217
v 0.432865 3.458175 6.263078
v -0.597308 3.335702 7.891101
v 0.298168 3.322055 9.601261
v 2.223816 3.430883 9.683399
v 3.253989 3.553356 8.055377
v 1.127708 6.894549 8.105824
vt 0.625000 0.033494
vt 0.375000 0.033494
vt 0.250000 0.250000
vt 0.375000 0.466506
vt 0.625000 0.466506
vt 0.750000 0.250000
vt 0.250000 0.500000
vt 0.333333 0.500000
vt 0.416667 0.500000
vt 0.500000 0.500000
vt 0.583333 0.500000
vt 0.666667 0.500000
vt 0.750000 0.500000
vt 0.500000 1.000000
vn 0.058013 -0.997579 -0.038337
vn 0.058013 -0.997579 -0.038337
vn 0.058013 -0.997579 -0.038337
vn 0.058013 -0.997579 -0.038337
vn 0.058013 -0.997579 -0.038337
vn 0.058013 -0.997579 -0.038337
vn 0.011020 0.470826 -0.882157
vn 0.011020 0.470826 -0.882157
vn 0.011020 0.470826 -0.882157
vn -0.784868 0.408546 -0.465911
vn -0.784868 0.408546 -0.465911
vn -0.784868 0.408546 -0.465911
vn -0.821137 0.371894 0.432932
vn -0.821137 0.371894 0.432932
vn -0.821137 0.371894 0.432932
vn -0.061518 0.397522 0.915528
vn -0.061518 0.397522 0.915528
vn -0.061518 0.397522 0.915528
vn 0.734370 0.459803 0.499282
vn 0.734370 0.459803 0.499282
vn 0.734370 0.459803 0.499282
vn 0.770639 0.496455 -0.399561
vn 0.770639 0.496455 -0.399561
vn 0.770639 0.496455 -0.399561
s off
g Pine_Tree pCone5
usemtl lambert15SG
f 65/107/175 70/112/176 69/111/177 68/110/178 67/109/179 66/108/180
f 65/113/181 66/114/182 71/120/183
f 66/114/184 67/115/185 71/120/186
f 67/115/187 68/116/188 71/120/189
f 68/116/190 69/117/191 71/120/192
f 69/117/193 70/118/194 71/120/195
f 70/118/196 65/119/197 71/120/198
g default
v 1.645163 6.022660 7.110596
v 0.617027 6.068510 7.169375
v 0.153491 6.081977 8.090013
v 0.718091 6.049593 8.951871
v 1.746227 6.003743 8.893091
v 2.209763 5.990276 7.972454
v 1.274421 8.095641 8.047829
vt 0.625000 0.033494
vt 0.375000 0.033494
vt 0.250000 0.250000
vt 0.375000 0.466506
vt 0.625000 0.466506
vt 0.750000 0.250000
vt 0.250000 0.500000
vt 0.333333 0.500000
vt 0.416667 0.500000
vt 0.500000 0.500000
vt 0.583333 0.500000
vt 0.666667 0.500000
vt 0.750000 0.500000
vt 0.500000 1.000000
vn -0.045009 -0.998954 -0.008050
vn -0.045009 -0.998954 -0.008050
vn -0.045009 -0.998954 -0.008050
vn -0.045009 -0.998954 -0.008050
vn -0.045009 -0.998954 -0.008050
vn -0.045009 -0.998954 -0.008050
vn -0.034058 0.406667 -0.912941
vn -0.034058 0.406667 -0.912941
vn -0.034058 0.406667 -0.912941
vn -0.800725 0.437154 -0.409555
vn -0.800725 0.437154 -0.409555
vn -0.800725 0.437154 -0.409555
vn -0.748782 0.427431 0.506585
vn -0.748782 0.427431 0.506585
vn -0.748782 0.427431 0.506585
vn 0.069828 0.387221 0.919339
vn 0.069828 0.387221 0.919339
vn 0.069828 0.387221 0.919339
vn 0.836495 0.356735 0.415952
vn 0.836495 0.356735 0.415952
vn 0.836495 0.356735 0.415952
vn 0.784552 0.366457 -0.500187
vn 0.784552 0.366457 -0.500187
vn 0.784552 0.366457 -0.500187
s off
g Pine_Tree pCone6
usemtl lambert15SG
f 72/121/199 77/126/200 76/125/201 75/124/202 74/123/203 73/122/204
f 72/127/205 73/128/206 78/134/207
f 73/128/208 74/129/209 78/134/210
f 74/129/211 75/130/212 78/134/213
f 75/130/214 76/131/215 78/134/216
f 76/131/217 77/132/218 78/134/219
f 77/132/220 72/133/221 78/134/222
